<svg width="500" height="500" viewBox="0 0 500 500" fill="none" xmlns="http://www.w3.org/2000/svg">
<rect width="500" height="500" rx="100" fill="#F15921"/>
<path d="M81.7085 242.025V185.424C81.7085 184.481 82.4819 183.709 83.4278 183.709H110.503C124.685 183.709 133.969 190.056 133.969 201.89C133.969 205.235 133.281 208.064 131.906 210.552C136.461 213.639 139.04 218.356 139.04 224.616C139.04 236.451 129.758 243.741 115.575 243.741H83.4278C82.4819 243.741 81.7085 242.969 81.7085 242.025ZM111.793 206.35C116.176 206.35 117.638 204.806 117.638 202.748C117.638 200.69 116.176 199.145 111.793 199.145H98.0396V206.349L111.793 206.35ZM116.864 228.304C121.248 228.304 122.709 226.246 122.709 224.188C122.709 222.13 121.248 220.071 116.864 220.071H98.0405V228.305L116.864 228.304Z" fill="white"/>
<path d="M174.444 225.388H161.98V242.883C161.98 243.396 161.637 243.74 161.121 243.74H146.509C145.994 243.74 145.649 243.397 145.649 242.883V184.567C145.649 184.052 145.993 183.709 146.509 183.709H177.022C191.204 183.709 200.487 192.714 200.487 204.548C200.487 210.466 198.167 215.611 194.127 219.384C196.792 223.929 197.909 228.647 201.089 228.989C202.464 229.161 202.808 229.503 202.808 230.79V242.024C202.808 244.253 201.69 244.511 200.229 244.511C178.741 244.511 184.931 225.388 174.444 225.388ZM177.022 209.952C181.32 209.952 184.156 208.323 184.156 204.549C184.156 200.776 181.319 199.146 177.022 199.146H161.98V209.952H177.022Z" fill="white"/>
<path d="M206.591 240.996L228.337 184.738C228.595 184.052 229.283 183.709 229.885 183.709H253.436C254.037 183.709 254.725 184.052 254.983 184.738L276.73 240.996C277.245 242.454 276.3 243.74 274.839 243.74H260.828C260.227 243.74 259.539 243.397 259.281 242.711L255.069 231.906H228.252L224.04 242.711C223.782 243.397 223.094 243.74 222.492 243.74H208.482C207.021 243.74 206.076 242.369 206.591 240.996ZM248.966 216.469L241.66 197.259L234.354 216.469H248.966Z" fill="white"/>
<path d="M282.667 240.567C281.636 240.052 281.293 239.538 281.293 238.08V225.646C281.293 223.33 281.98 222.987 283.613 224.102C288.341 227.36 297.366 229.676 307.25 229.676C317.135 229.676 321.862 228.389 321.862 224.873C321.862 221.1 313.955 221.529 303.382 220.928C292.208 220.328 279.659 217.498 279.659 201.547C279.659 189.369 290.918 182.337 308.109 182.337C320.057 182.337 327.534 184.224 332.519 186.711C333.551 187.226 333.894 187.74 333.894 189.198V201.632C333.894 203.948 333.207 204.291 331.574 203.177C326.846 199.918 319.54 197.774 308.108 197.774C301.747 197.774 295.989 198.889 295.989 202.405C295.989 205.492 302.435 205.578 310.086 206.007C323.494 206.778 338.192 208.751 338.192 225.732C338.192 237.91 326.588 245.113 307.25 245.113C296.849 245.113 287.652 243.054 282.667 240.567Z" fill="white"/>
<path d="M346.34 242.025V185.424C346.34 184.481 347.114 183.709 348.06 183.709H360.953C361.899 183.709 362.672 184.481 362.672 185.424V242.025C362.672 242.969 361.899 243.74 360.953 243.74H348.06C347.114 243.74 346.34 242.969 346.34 242.025Z" fill="white"/>
<path d="M372.335 242.025V185.424C372.335 184.481 373.109 183.709 374.055 183.709H386.948C387.894 183.709 388.667 184.481 388.667 185.424V228.304H417.462C418.407 228.304 419.18 229.075 419.18 230.019V242.026C419.18 242.969 418.407 243.741 417.462 243.741H374.056C373.11 243.741 372.335 242.969 372.335 242.025Z" fill="white"/>
<path d="M80.332 287.801C80.332 268.677 94.4268 256.499 117.676 256.499C123.076 256.499 131.313 257.443 137.813 260.273C138.453 260.53 139.002 261.044 139.002 261.73V275.022C139.002 276.052 137.904 276.567 136.898 276.052C131.223 273.136 124.267 271.936 117.677 271.936C104.862 271.936 97.7236 277.338 97.7236 287.801C97.7236 298.263 104.863 303.837 117.677 303.837C124.267 303.837 130.857 302.208 136.898 299.635C137.904 299.206 139.002 299.721 139.002 300.75L139.186 314.129C139.186 314.729 138.819 315.329 138.179 315.586C130.582 318.502 123.076 319.274 117.677 319.274C94.4286 319.274 80.332 306.754 80.332 287.801Z" fill="#571B1C"/>
<path d="M143.121 315.157L166.279 258.9C166.553 258.214 167.285 257.871 167.926 257.871H193.005C193.646 257.871 194.378 258.214 194.653 258.9L217.809 315.157C218.359 316.616 217.352 317.902 215.795 317.902H200.876C200.236 317.902 199.503 317.559 199.229 316.873L194.744 306.068H166.187L161.702 316.873C161.428 317.559 160.696 317.902 160.055 317.902H145.136C143.58 317.902 142.573 316.53 143.121 315.157ZM188.244 290.63L180.464 271.421L172.684 290.63H188.244Z" fill="#571B1C"/>
<path d="M217.079 287.801C217.079 268.677 231.174 256.499 254.422 256.499C259.823 256.499 268.06 257.443 274.559 260.273C275.2 260.53 275.749 261.044 275.749 261.73V275.022C275.749 276.052 274.651 276.567 273.644 276.052C267.969 273.136 261.013 271.936 254.423 271.936C241.609 271.936 234.47 277.338 234.47 287.801C234.47 298.263 241.61 303.837 254.423 303.837C261.013 303.837 267.604 302.208 273.644 299.635C274.651 299.206 275.749 299.721 275.749 300.75L275.932 314.129C275.932 314.729 275.566 315.329 274.925 315.586C267.329 318.502 259.823 319.274 254.423 319.274C231.175 319.274 217.079 306.754 217.079 287.801Z" fill="#571B1C"/>
<path d="M279.87 315.157L303.027 258.9C303.302 258.214 304.034 257.871 304.675 257.871H329.754C330.395 257.871 331.127 258.214 331.401 258.9L354.559 315.157C355.107 316.616 354.101 317.902 352.545 317.902H337.626C336.985 317.902 336.253 317.559 335.979 316.873L331.493 306.068H302.936L298.452 316.873C298.178 317.559 297.445 317.902 296.805 317.902H281.886C280.33 317.902 279.321 316.53 279.87 315.157ZM324.994 290.63L317.214 271.421L309.434 290.63H324.994Z" fill="#571B1C"/>
<path d="M355.566 287.801V259.586C355.566 258.643 356.39 257.871 357.397 257.871H371.126C372.133 257.871 372.957 258.643 372.957 259.586V287.801C372.957 298.95 377.9 304.695 387.418 304.695C396.936 304.695 401.789 298.949 401.789 287.801V259.586C401.789 258.643 402.613 257.871 403.618 257.871H417.348C418.353 257.871 419.177 258.643 419.177 259.586V287.801C419.177 308.555 408.378 319.275 387.417 319.275C366.456 319.275 355.566 308.555 355.566 287.801Z" fill="#571B1C"/>
</svg>
